<svg viewBox="0 0 252 252" xmlns="http://www.w3.org/2000/svg"><g fill-rule="evenodd"><path d="m0 126c0 69.6 56.5 126 126 126s126-56.4 126-126-56.4-126-126-126-126 56.3-126 126z" fill="#192e45"/><path d="m23.9 96.6-7.1 14.4 9.6-13.4c0 .1-.6 19.3-.6 19.3l2.7-14.5c7.2 13.7 23.1 34.8 45.4 50.5 1.7 1.2 3.9 3.3 4.6 4.1 0 0 21.3 10.8 54.1-14.2.3-.2.7-.4 1-.6l.5.3 7.2 4.8c-2.5-.7-7.3-1.9-7.3-1.9-15.8 18.2-41.5 21.2-55.3 12-.6-.4-4 1-4.6 3-.4 1.1 0 2.3.5 3.2 2.8 5.2 7 4.7 5 10.8-1.4 3.3-3.4 6.5-5.6 9.5-4.6 6.2-11.8 11.7-11.1 15 32.6 40.2 106.1 34.6 134.1-1.3-.4-5.2-8.6-7.7-14.3-20.4 1.6.5 4 1.2 4 1.1s-6.8-11.1-7.1-12.2l4.4.3s-5.8-7.2-6-7.9l5.9-.8s-7.4-8.5-7.5-9.2l7.5 1.2-8.2-9.9h3.9l-4.6-6.7-37.3-14.7c-14.3-8.9-27-19.8-36.6-28.2l-19.3-9.4c-18.5-1.4-35.8-.9-46.4 1.2l6.8-11.6-9.9 11.8c-.7-.2-1.4-.4-1.4-.4l.7-15-3.3 14z" fill="#d2943b"/><path d="m28.4 80.8c-4.9-2.3-10.6 1-11.6 5.5-1.2 4.3 1.8 9.6 7.1 10.3 5-3.1 9.3-11.1 4.5-15.8z" fill="#ffcd86"/><path d="m101.2 69.8c-1.5-4.1-1.1-9.4 1-14.4 3-6.9 8.7-11.5 14.1-11.5s2.1.2 3.1.6c3.1-2.8 6.7-5.1 10.7-6.7 22-8.8 54.3 6.9 62.6 28.5 4 10.5 2.8 21.9-.6 32.4-2.8 8.6-13 21-9.2 30.3-1.5-.4-32.8-11-41.8-15.8-14.1-8.8-26.7-19.6-36.2-27.9l-.3-.3-32-15.2c-.4-.2-.8-.4-1.1-.6 4.4.3 21.9 2.4 29.7.6" fill="#ffd524"/></g><path d="m110.6 73.5c-.9 0-1.6-.2-2.3-.5-1.6-.7-2.8-2-3.6-4-1.4-3.4-1-8.1.9-12.5 2.5-5.6 7.3-9.7 11.5-9.7s1.6.2 2.4.5c2.1.9 3.6 3 4.1 6 .6 3.2.1 6.9-1.5 10.4-2.4 5.6-7.3 9.8-11.5 9.8z" fill="#fff"/><path d="m117.1 48.5c.6 0 1.2 0 1.8.4 1.6.7 2.8 2.5 3.2 4.9.5 2.9.1 6.3-1.4 9.5-2.2 5.1-6.5 8.8-10.1 8.8s-1.2-.1-1.7-.3c-1.5-.6-2.3-2-2.7-3.1-1.2-3-.9-7.4.8-11.4 2.2-5.2 6.5-8.8 10.1-8.8m0-3c-4.8 0-10.1 4.4-12.9 10.7-2.1 4.7-2.4 9.8-.9 13.7.9 2.3 2.4 3.9 4.3 4.8.9.4 1.9.6 3 .6 4.8 0 10.1-4.4 12.8-10.7 1.7-3.8 2.2-7.8 1.6-11.3s-2.5-5.8-4.9-7.1c-.9-.5-2-.7-3-.7z" fill="#192e45"/></svg>